<svg xmlns="http://www.w3.org/2000/svg" viewBox="0 0 400 420" role="img" aria-labelledby="title desc">
  <title id="title">Chandra Azmi Khairunnisa</title>
  <desc id="desc">Portrait illustration for Chandra Azmi Khairunnisa</desc>
  <defs>
    <linearGradient id="bg1" x1="0" x2="1" y1="0" y2="1">
      <stop offset="0%" stop-color="#dff4e6"/>
      <stop offset="100%" stop-color="#c8dcca"/>
    </linearGradient>
  </defs>
  <rect width="400" height="420" rx="30" fill="url(#bg1)"/>
  <circle cx="200" cy="120" r="62" fill="#f5d7bf"/>
  <path d="M148 118c5-43 30-66 56-66 38 0 63 26 65 71-14-14-27-22-46-22-18 0-31 6-45 17-8 6-18 8-30 0Z" fill="#2f3d3a"/>
  <path d="M119 332c15-57 51-90 81-90 49 0 78 45 88 90H119Z" fill="#455d52"/>
  <circle cx="177" cy="122" r="8" fill="#2a2a2a"/>
  <circle cx="224" cy="122" r="8" fill="#2a2a2a"/>
  <path d="M186 155c9 8 20 12 31 12 11 0 22-4 31-12" fill="none" stroke="#9f5b45" stroke-width="6" stroke-linecap="round"/>
  <path d="M144 332h112l-12 55H156l-12-55Z" fill="#2f3d3a"/>
</svg>
